<?xml version="1.0" encoding="utf-8"?>
<!-- Generator: Adobe Illustrator 16.0.0, SVG Export Plug-In . SVG Version: 6.00 Build 0)  -->
<!DOCTYPE svg PUBLIC "-//W3C//DTD SVG 1.1//EN" "http://www.w3.org/Graphics/SVG/1.1/DTD/svg11.dtd">
<svg version="1.1" id="圖層_1" xmlns="http://www.w3.org/2000/svg" xmlns:xlink="http://www.w3.org/1999/xlink" x="0px" y="0px"
	 width="265.415px" height="102.001px" viewBox="0 0 265.415 102.001" enable-background="new 0 0 265.415 102.001"
	 xml:space="preserve">
<g>
	<g>
		<g>
			<path fill="#295D80" d="M94.128,63.515c1.401-3.91,2.169-8.122,2.169-12.514c0-20.495-16.614-37.109-37.108-37.109
				c-20.496,0-37.11,16.614-37.11,37.109S38.692,88.11,59.188,88.11c13.308,0,24.975-7.011,31.523-17.535l8.974,1.605L94.128,63.515
				z"/>
		</g>
		<g>
			<path fill="#ECAE32" d="M84.04,41.334c0.476,0,0.879,0.167,1.214,0.501c0.334,0.335,0.502,0.739,0.502,1.214
				s-0.168,0.879-0.502,1.214c-0.335,0.334-0.738,0.502-1.214,0.502h-6.432c-0.474,0-0.879-0.168-1.213-0.502
				c-0.335-0.335-0.501-0.739-0.501-1.214s0.168-0.88,0.505-1.218c0.109-0.107,0.229-0.199,0.359-0.273l-0.008-0.01l5.352-4.494
				c0.148-0.256,0.223-0.543,0.223-0.856c0-0.476-0.167-0.879-0.501-1.214c-0.336-0.334-0.739-0.502-1.215-0.502
				c-0.474,0-0.877,0.166-1.209,0.498c-0.229,0.32-0.42,0.557-0.574,0.712c-0.337,0.337-0.744,0.506-1.218,0.506
				s-0.879-0.168-1.213-0.502c-0.335-0.335-0.501-0.738-0.501-1.214c0-0.394,0.115-0.739,0.351-1.037
				c0.159-0.269,0.403-0.565,0.729-0.892c1.002-1.001,2.213-1.501,3.636-1.501c1.424,0,2.638,0.502,3.642,1.505
				c1.003,1.004,1.505,2.217,1.505,3.641c0,1.286-0.284,2.138-0.85,2.556h-0.009l-2.676,2.581H84.04z"/>
		</g>
		<g>
			<g>
				<path fill="#956446" d="M132.842,30.582c0,0.396,0.396,0.789,0.792,0.789h20.428c1.516,0,2.703,1.188,2.703,2.77
					c0,1.517-1.188,2.702-2.703,2.702h-43.295c-0.66,0-1.318,0.658-1.318,1.382v5.867l-1.911,37.231
					c-0.065,1.582-1.318,2.701-2.899,2.701c-1.516,0-2.636-1.186-2.57-2.701l1.978-37.43v-7.777c0-2.637,2.108-4.745,4.745-4.745
					h17.857c0.329,0,0.726-0.394,0.726-0.789c0-1.451,1.186-2.571,2.636-2.571h0.263C131.722,28.011,132.842,29.131,132.842,30.582z
					 M121.64,54.832c0,1.385-1.12,2.505-2.438,2.505c-1.384,0-2.503-1.12-2.503-2.505v-5.536c0-0.066-0.067-0.066-0.067-0.066
					c-0.197,0.266-0.527,0.462-0.791,0.462h-2.437c-1.253,0-1.978-1.382-1.253-2.371l4.81-6.853c1.055-1.582,2.834-2.506,4.68-2.506
					c1.252,0,1.978,1.451,1.252,2.506l-0.593,0.855c-0.396,0.592-0.659,1.252-0.659,1.977V54.832z M133.634,55.952
					c1.317,0,2.372,1.055,2.372,2.373v0.264c0,0.396,0.329,0.724,0.725,0.724h10.874c2.636,0,4.811,2.177,4.811,4.812v16.871
					c0,1.447-1.187,2.635-2.637,2.635c-1.449,0-2.636-1.188-2.636-2.635V65.838c0-0.727-0.528-1.254-1.253-1.254h-5.272
					c-0.461,0-0.723,0.527-0.394,0.923l2.438,2.439c0.923,0.855,0.264,2.371-0.988,2.371c-2.108,0-4.217-0.855-5.734-2.371
					l-1.316-1.253c-0.462-0.46-1.252-0.46-1.78,0.067l-1.12,1.186c-1.384,1.516-3.359,2.371-5.403,2.371
					c-1.186,0-1.845-1.516-1.055-2.371l2.307-2.439c0.33-0.328,0.066-0.923-0.461-0.923h-5.536c-0.726,0-1.252,0.527-1.252,1.254
					v15.089c0,1.516-1.186,2.703-2.701,2.703c-1.449,0-2.636-1.188-2.636-2.703V64.124c0-2.635,2.174-4.812,4.81-4.812h10.809
					c0.329,0,0.658-0.328,0.658-0.724v-0.264C131.261,57.007,132.315,55.952,133.634,55.952z M133.83,69.397
					c1.187,0,2.176,0.985,2.176,2.174c0,0.394,0.197,0.724,0.46,0.988l5.997,5.008c0.989,0.791,0.462,2.373-0.855,2.373
					c-2.373,0-4.745-0.857-6.591-2.373l-0.461-0.396c-0.461-0.395-1.186-0.395-1.647,0.065l-0.329,0.331
					c-1.714,1.516-3.954,2.373-6.195,2.373c-1.12,0-1.779-1.648-0.922-2.373l5.403-4.876c0.264-0.265,0.396-0.659,0.396-1.054
					c0-1.255,1.055-2.24,2.307-2.24H133.83z M147.274,37.632c1.252,0,2.24,0.988,2.24,2.242c0,0.395,0.264,0.658,0.593,0.658h1.912
					c1.383,0,2.438,1.055,2.438,2.438c0,1.385-1.056,2.504-2.438,2.504h-1.45c-0.594,0-1.055,0.463-1.055,1.055v8.635
					c0,1.383-1.055,2.437-2.438,2.437c-1.317,0-2.437-1.054-2.437-2.437v-8.436c0-0.66-0.596-1.254-1.253-1.254h-13.378
					c-1.318,0-2.438-1.119-2.438-2.504c0-1.383,1.12-2.438,2.438-2.438h14.035c0.331,0,0.596-0.264,0.596-0.658
					c0-1.254,1.053-2.242,2.305-2.242H147.274z M138.971,50.153c0.791,1.186-0.065,2.701-1.45,2.701
					c-1.977,0-3.887-1.054-4.875-2.701l-0.199-0.33c-0.725-1.187,0.133-2.701,1.517-2.701c1.976,0,3.756,0.988,4.81,2.701
					L138.971,50.153z"/>
			</g>
			<g>
				<path fill="#956446" d="M189.34,32.821c0,0.658,0.461,1.187,1.12,1.187H207c2.636,0,4.811,2.175,4.811,4.812v3.888
					c0,1.581-1.318,2.833-2.834,2.833c-1.581,0-2.833-1.252-2.833-2.833v-1.778c0-0.66-0.593-1.254-1.252-1.254h-36.903
					c-0.659,0-1.253,0.594-1.253,1.254v1.778c0,1.581-1.25,2.833-2.832,2.833c-1.517,0-2.834-1.252-2.834-2.833v-3.888
					c0-2.637,2.174-4.812,4.81-4.812h16.542c0.658,0,1.119-0.528,1.119-1.187v-1.45c0-1.581,1.318-2.898,2.899-2.898
					c1.582,0,2.9,1.317,2.9,2.898V32.821z M187.626,66.299c-0.725,0.065-1.252,0.659-1.252,1.383v8.041
					c0,0.724,0.593,1.317,1.252,1.317h19.703c1.517,0,2.834,1.252,2.834,2.832c0,1.582-1.317,2.836-2.834,2.836h-21.878
					c-2.636,0-4.744-2.175-4.744-4.811v-9.623c0-0.725-0.593-1.251-1.318-1.186l-14.3,1.254c-1.582,0.131-2.899-1.055-2.899-2.637
					c0-1.648,1.253-3.031,2.899-3.162l14.3-1.254c0.726-0.065,1.318-0.658,1.318-1.383v-5.602c0-0.659-0.593-1.186-1.318-1.186
					l-8.83,0.789c-1.516,0.131-2.834-1.055-2.834-2.57c0-1.647,1.186-3.029,2.834-3.163l27.216-2.372
					c1.581-0.131,2.899,1.121,2.899,2.637c0,1.646-1.252,2.965-2.899,3.098l-10.148,0.921c-0.725,0-1.252,0.661-1.252,1.385v5.536
					c0,0.658,0.593,1.252,1.252,1.186l11.986-0.965c1.515-0.135,2.833,1.055,2.833,2.569c0,1.582-1.253,2.965-2.833,3.095
					L187.626,66.299z"/>
			</g>
			<g>
				<g>
					<path fill="#956446" d="M238.762,82.663h-8.524c-1.223,0-2.214-0.992-2.214-2.215V70.412l-8.85-8.761l-8.745,8.736v9.176
						c0,1.223-0.991,2.213-2.214,2.213s-2.214-0.99-2.214-2.213V69.47c0-0.588,0.233-1.151,0.649-1.566l10.952-10.941
						c0.86-0.86,2.257-0.863,3.122-0.007l11.07,10.96c0.421,0.416,0.657,0.982,0.657,1.574v8.745h6.31
						c1.224,0,2.215,0.991,2.215,2.214S239.985,82.663,238.762,82.663z"/>
				</g>
			</g>
			<g>
				<g>
					<path fill="#956446" d="M222.175,79.487h-6.899c-0.49,0-0.886-0.396-0.886-0.885v-6.422c0-0.488,0.396-0.885,0.886-0.885h6.899
						c0.489,0,0.885,0.396,0.885,0.885v6.422C223.06,79.091,222.664,79.487,222.175,79.487z M216.161,77.716h5.128v-4.649h-5.128
						V77.716z"/>
				</g>
			</g>
			<g>
				<g>
					<path fill="#956446" d="M221.772,76.215h-6.229c-0.489,0-0.886-0.396-0.886-0.886c0-0.488,0.396-0.886,0.886-0.886h6.229
						c0.489,0,0.886,0.397,0.886,0.886C222.658,75.818,222.262,76.215,221.772,76.215z"/>
				</g>
			</g>
			<g>
				<g>
					<path fill="#956446" d="M218.725,79.028c-0.49,0-0.886-0.396-0.886-0.886v-5.626c0-0.489,0.396-0.886,0.886-0.886
						c0.489,0,0.886,0.396,0.886,0.886v5.626C219.61,78.632,219.214,79.028,218.725,79.028z"/>
				</g>
			</g>
		</g>
		<g>
			<path fill="#D4124C" d="M237.53,48.934c-1.373,0-2.561,0.776-3.154,1.915c-0.594-1.139-1.781-1.915-3.154-1.915
				c-1.963,0-3.557,1.591-3.557,3.557c0,3.978,6.711,7.761,6.711,7.761s6.711-3.783,6.711-7.761
				C241.087,50.524,239.494,48.934,237.53,48.934z"/>
		</g>
		<g>
			<path fill="#ECAE32" d="M73.76,51.108l-6.918-3.508c-1.288-0.654-1.16-1.189,0.283-1.189h4.119c1.443,0,2.623-1.178,2.623-2.622
				v-0.741c0-1.443-1.18-2.624-2.623-2.624h-9.893c-1.442,0-2.623-0.516-2.623-1.144c0-0.631,1.181-1.176,2.623-1.213l7.551-0.189
				c1.442-0.037,2.453-1.236,2.242-2.663l-0.109-0.745c-0.209-1.429-1.561-2.57-3.003-2.539l-29.281,0.647
				c-1.441,0.031-2.473,1.229-2.291,2.659l0.101,0.786c0.182,1.431,1.512,2.575,2.955,2.546l7.17-0.158
				c1.442-0.03,2.622,0.409,2.622,0.978c0,0.569-1.18,1.035-2.624,1.035h-9.946c-1.442,0-2.622,1.181-2.622,2.624v0.741
				c0,1.444,1.18,2.622,2.622,2.622h4.338c1.443,0,1.561,0.516,0.263,1.146l-7.422,3.595c-1.299,0.629-1.624,2.064-0.723,3.191
				l1.731,2.166c0.896,1.117,2.616,1.422,3.843,0.689c-0.079,0.248-0.134,0.508-0.134,0.782v15.718c0,1.443,1.181,2.623,2.623,2.623
				h25.577c1.442,0,2.622-1.18,2.622-2.623V57.98c0-0.208-0.031-0.407-0.076-0.603c1.152,0.449,2.563,0.111,3.351-0.869l1.731-2.166
				C75.363,53.216,75.048,51.761,73.76,51.108z M47.074,52.091c1.229-0.758,2.233-0.195,2.233,1.248v1.287
				c0,0.254,0.049,0.496,0.117,0.73h-7.659L47.074,52.091z M60.882,71.589H46.979c-0.734,0-1.329-0.596-1.329-1.328
				c0-0.734,0.595-1.329,1.329-1.329h13.902c0.734,0,1.329,0.595,1.329,1.329C62.211,70.993,61.616,71.589,60.882,71.589z
				 M60.882,62.909H46.979c-0.734,0-1.329-0.595-1.329-1.328s0.595-1.328,1.329-1.328h13.902c0.734,0,1.329,0.595,1.329,1.328
				S61.616,62.909,60.882,62.909z M58.612,55.356c0.068-0.234,0.116-0.477,0.116-0.73v-1.449c0-1.444,0.99-1.982,2.201-1.199
				l5.219,3.379H58.612z"/>
		</g>
	</g>
</g>
</svg>
